<svg xmlns="http://www.w3.org/2000/svg" version="1.1" xmlns:xlink="http://www.w3.org/1999/xlink" xmlns:svgjs="http://svgjs.dev/svgjs" width="2000" height="1500" viewBox="0 0 2000 1500"><rect width="2000" height="1500" fill="#ffffff"></rect><g transform="matrix(0.75,0,0,0.75,251.04423878702028,81.91739651511125)"><svg viewBox="0 0 277 247" data-background-color="#ffffff" preserveAspectRatio="xMidYMid meet" height="1783" width="2000" xmlns="http://www.w3.org/2000/svg" xmlns:xlink="http://www.w3.org/1999/xlink"><g id="tight-bounds" transform="matrix(1,0,0,1,-0.19266837286141936,-0.09997365579206985)"><svg viewBox="0 0 277.3855044688645 247.2" height="247.2" width="277.3855044688645"><g><svg viewBox="0 0 277.3855044688645 247.2" height="247.2" width="277.3855044688645"><g><svg viewBox="0 0 277.3855044688645 247.2" height="247.2" width="277.3855044688645"><g id="textblocktransform"><svg viewBox="0 0 277.3855044688645 247.2" height="247.2" width="277.3855044688645" id="textblock"><g><svg viewBox="0 0 277.3855044688645 247.2" height="247.2" width="277.3855044688645"><path d="M276.736 53.02C275.432 27.36 271.716 20.227 271.716 20.227 260.305-6.202 246.065-0.506 233.272 3.292 210.686 3.446 188.191 9.091 165.657 12.119 118.359 12.581 70.657 4.986 23.594 23.717 19.173 29.464-4.586 24.846 0.786 56.304 2.195 69.39 7.333 83.913 7.176 95.922 7.88 98.026 8.858 93.202 9.276 96.23 10.736 104.39 13.123 100.541 15.079 105.365 12.353 118.246 14.309 128.971 16.174 140.21 12.888 143.135 8.676 141.749 6.785 151.449 6.589 158.479 5.533 157.145 4.372 156.837 3.525 156.632 1.817 157.402 2.103 159.608 3.081 167.152-1.118 171.514 1.517 178.904-0.296 186.91 2.768 193.838 2.351 202.511 2.299 204.255 2.586 205.744 3.042 206.154 5.064 208.361 2.116 212.672 2.429 217.342 23.164 249.262 45.659 227.195 66.902 241.872 72.418 231.608 68.271 245.516 70.475 243.36 72.196 240.846 73.448 251.263 75.391 245.362 75.691 243.668 75.234 239.665 76.304 240.435 76.865 240.846 77.36 240.743 77.438 238.382 77.556 234.841 76.525 237.048 76.252 235.201 79.212 225.861 78.482 248.081 81.259 247.158 81.129 244.438 80.32 240.538 81.976 241.051 83.62 237.151 83.672 233.918 85.132 242.693 85.184 244.592 85.445 245.926 85.862 246.85 90.427 237.305 94.965 250.237 99.751 245.926 102.685 241.205 105.501 248.492 108.475 246.696 109.518 245.259 110.574 242.693 111.578 247.004 123.875 247.928 136.981 244.079 148.639 247.158 179.793 241.41 213.085 249.518 245.934 241.923 253.681 238.998 261.726 234.841 269.277 231.506 269.277 231.506 275.393 222.371 275.393 181.316S276.697 145.393 276.893 112.703C277.088 80.013 278.001 78.679 276.697 53.02Z" opacity="1" fill="#6230a3" data-fill-palette-color="tertiary"></path><g transform="matrix(1,0,0,1,55.76832000000002,26.230666666666668)"><svg width="165.84886446886446" viewBox="2 -35.9 31 36.400000000000006" height="194.73866666666666" data-palette-color="#ffffff"><path d="M19.95 0.5L19.95 0.5Q16.55 0.5 13.35-0.28 10.15-1.05 7.58-3.05 5-5.05 3.5-8.6 2-12.15 2-17.7L2-17.7Q2-22.85 3.5-26.35 5-29.85 7.5-31.95 10-34.05 12.98-34.98 15.95-35.9 18.95-35.9L18.95-35.9Q21.5-35.9 23.93-35.5 26.35-35.1 27.45-34.6L27.45-34.6 33-30.05 28.5-22.8 19.95-27.2Q16.4-27.2 13.95-24.88 11.5-22.55 11.5-17.7L11.5-17.7Q11.5-14.25 12.73-12.1 13.95-9.95 16.1-8.95 18.25-7.95 21-7.95L21-7.95Q23.9-7.95 25.95-8.43 28-8.9 29.55-9.58 31.1-10.25 32.5-10.9L32.5-10.9 32.5-2.5Q30.75-1.4 27.85-0.45 24.95 0.5 19.95 0.5Z" opacity="1" transform="matrix(1,0,0,1,0,0)" fill="#ffffff" class="wordmark-text-0" data-fill-palette-color="quaternary" id="text-0"></path></svg></g></svg></g></svg></g></svg></g><g></g></svg></g><defs></defs></svg><rect width="277.3855044688645" height="247.2" fill="none" stroke="none" visibility="hidden"></rect></g></svg></g></svg>